<?xml version="1.0" encoding="utf-8"?>
<!-- Generator: Adobe Illustrator 26.0.1, SVG Export Plug-In . SVG Version: 6.00 Build 0)  -->
<svg version="1.1" xmlns="http://www.w3.org/2000/svg" xmlns:xlink="http://www.w3.org/1999/xlink" x="0px" y="0px"
	 viewBox="0 0 1500 500" style="enable-background:new 0 0 1500 500;" xml:space="preserve">
<style type="text/css">
	.st0{fill:#E8EDE7;}
	.st1{fill:#012E4A;}
	.st2{fill:#378BA4;}
</style>
<g id="Layer_2">
	<rect x="1" y="1.48" class="st0" width="1499" height="498.52"/>
</g>
<g id="Layer_1">
	<circle class="st1" cx="250.51" cy="250.99" r="249.51"/>
	<path class="st2" d="M170.21,16.13c33.17,116.18,74.24,228.27,117.87,340.23c3.92-1.25,7.74-2.46,11.43-3.63
		c2.72,4.3,2.73,4.31-1.6,5.76c-2.48,0.83-4.98,1.59-7.87,2.51c0.81,2.64,1.41,5.06,2.3,7.38c13.52,35.39,27.09,70.76,40.63,106.15
		c0.86,2.25,2.97,5.5,2.11,6.61c-1.78,2.31-5.14,3.53-7.89,5.14c-0.68,0.4-1.53,0.55-2.32,0.79c-10.27,3.17-11.22,2.73-14.84-6.75
		c-13.67-35.84-27.34-71.69-41.02-107.53c-0.5-1.32-1-2.64-1.5-3.94c-4.45,0.82-8.5,1.6-12.59,2.17c-0.19,0.03-0.74-1.88-1.34-3.44
		c3.92-1.25,7.74-2.46,12.05-3.83c-1.11-2.9-2.05-5.24-2.89-7.61c-21.37-60.16-42.86-120.29-64.01-180.52
		c-8.51-24.24-16.84-48.56-24.2-73.09c-5.01-16.71-8.6-33.8-12.04-50.84c-2.07-10.28,0.6-20.32,3.95-30.02
		C167.02,19.94,168.52,18.54,170.21,16.13z M264.44,352.48c4.42-0.16,5.58-1.46,4.19-5.38c-25.88-73.12-51.85-146.21-77.28-219.46
		c-9.04-26.05-17.44-52.34-21.94-79.43c-1-6.05-1.39-12.17-2.19-19.5c-3.01,9.1-3.16,17.19-2.01,25.37
		c3.65,25.96,12.31,50.85,20.65,75.78c12.99,38.86,25.94,77.74,39.51,116.44c12.15,34.63,25.12,69.02,37.75,103.51
		C263.43,350.68,263.94,351.49,264.44,352.48z M304.45,405.89c-0.16,0.05-0.31,0.1-0.47,0.15c7.15,18.75,14.3,37.5,21.45,56.25
		c0.16-0.05,0.31-0.1,0.47-0.15C318.75,443.39,311.6,424.64,304.45,405.89z M286.59,402.03c7.28,1.71,7.64,1.59,10.69-3.64
		C292.58,396.35,289.07,397.45,286.59,402.03z M320.5,458.64c-4.92-2.32-8.47-1.02-10.91,3.4
		C314.5,464.37,318.07,463.15,320.5,458.64z M292.97,386.54c-5.08-2.23-8.44-0.99-10.74,3.35
		C287.06,392.21,290.42,390.91,292.97,386.54z M314.27,474.2c5.08,1.86,8.61,0.98,10.65-3.66
		C320.14,468.73,316.54,469.42,314.27,474.2z M291.35,413.77c6.56,2.28,7.14,2.09,10.52-3.37
		C297.17,408.46,293.67,409.54,291.35,413.77z M315.99,446.76c-7.16-2.11-7.78-1.88-10.66,3.59
		C311.68,451.59,311.68,451.59,315.99,446.76z M264.18,356.63c0.13,0.28,0.26,0.56,0.39,0.84c6.63-2.11,13.25-4.21,19.88-6.32
		c-0.11-0.29-0.22-0.57-0.33-0.86C277.47,352.4,270.83,354.52,264.18,356.63z M266.24,361.99c0.13,0.28,0.25,0.56,0.38,0.85
		c6.64-2.11,13.28-4.22,19.92-6.33c-0.11-0.29-0.22-0.58-0.33-0.86C279.55,357.76,272.9,359.87,266.24,361.99z M271.16,374.56
		c0.1,0.26,0.19,0.52,0.29,0.77c6.58-2.09,13.16-4.18,19.74-6.27c-0.1-0.26-0.2-0.51-0.31-0.77
		C284.31,370.38,277.73,372.47,271.16,374.56z M306.67,422.75c-6.31-2.34-7.54-1.94-10.57,3.46
		C300.76,428.01,304.39,427.04,306.67,422.75z M311.25,434.56c-4.91-2.2-8.36-0.91-10.79,3.42
		C305.43,440.25,308.97,439.17,311.25,434.56z"/>
	<g>
		<path class="st0" d="M294.11,127.77c4.37,1.55,8.98,1.41,13.49,2.03c12.05,1.65,22.25,7.09,30.56,15.92
			c9.64,10.25,17.02,22.12,23.37,34.57c2.67,5.23,4.45,10.97,6.6,16.48c1.83,4.68,2.07,9.75,2.22,14.82
			c0.72,24.97-5.39,48.86-11.26,72.8c-1.52,6.21-2.8,12.47-4.17,18.71c-0.9,4.08-2.83,7.87-2.66,12.27
			c0.21,5.52,1.1,10.73,4.16,15.48c0.5-4.9-4.01-9.91,0.23-15.2c2.6,2.89,2.65,6.28,4.52,9.9c-0.18-6.64-3.08-12.86,2.36-17.77
			c1.53,0.81,0.64,3.12,2.73,3.68c-0.35-5.4-3.31-10.44-1.9-16.22c3.13,2.31,2.17,6.27,4.62,9.62c0.16-7.03-3.52-12.95-1.5-19.59
			c3.03,1.9,1.89,5.32,4.51,7.32c-0.35-2.25-0.7-4.1-0.91-5.96c-0.25-2.2-3.52-5.1,1.46-6.19c0.71-0.16,0.35-8.02-0.45-8.98
			c-1.72-2.06-1.58-4.53-1.59-6.92c0-2.25,1.82-2.88,3.74-3.67c1.99,3.75,1.26,8.13,3.52,12.36c1.05-6.48-3.15-13.06,2.08-18.92
			c2.58,3.8,1.61,7.94,3.53,11.27c0.62-4.66-0.9-9.33-0.03-14.46c2.43,1.33,2.24,4.06,3.77,5.56c0.81-1.02,0.54-1.92,0.23-2.71
			c-2.06-5.32-0.78-6.08,2.92-9.11c1.88-1.55,4.07-2.71,6.4-3.46c5.67-1.84,10.46,1.68,9.71,7.58c-0.49,3.88-0.15,6.39,3.6,8.67
			c3.46,2.1,4.53,6.13,4.27,10.94c-3.36-2.87-5.8-5.94-9.29-7.9c2.67,5.43,9.23,8.56,9.6,16.62c-3.62-3.42-6.49-6.12-9.37-8.83
			c2.05,4.54,5.64,8,8.44,12l0.03-0.06c-1.2,0.98-2.24,0.51-3.27-0.32c-1.06-0.85-2.14-1.66-3.45-2.27c1.5,3.6,4.96,5.58,7.32,8.45
			c2.81,3.41,2.73,6.94,3.32,10.83c0.57,3.76,2.9,7.24,0.22,12.19c-2.85-6.27-6.56-11.04-11.31-16.15c0.54,3.28,2.27,5.08,3.67,6.74
			c2.79,3.3,4.44,7.21,6.63,10.82c1.35,2.22,1.43,4.55,0.22,7.99c-3.42-5.75-5.57-11.41-10.04-15.51c2.02,5.31,5.56,9.89,7.22,15.38
			c1.18,3.9,1.29,4.07-2.84,7.33c-2.22-4.67-4.4-9.27-6.94-14.61c-0.31,5.27,2.64,8.77,3.8,12.76c1.28,4.39,1.55,4.31-2.51,7.41
			c-0.89-0.03-1.25-0.72-1.7-1.33c-0.44-0.6-0.94-1.15-1.66-2.02c1.58,6.91,1.58,6.93-3.43,9.78c-1.04-0.15-0.87-1.63-1.96-1.73
			c-0.31-0.04-0.53,0.17-0.44,0.55c1.05,4.2-1.99,6.37-4.38,8.86c-0.44,0.46-1.25,0.84-1.63,0.46c-2.77-2.78-3.9,0.15-5.41,1.52
			c-1.29,1.18-1.95,3.04-4.26,3c-1.49-0.03-1.53,1.59-1.1,2.44c1.27,2.51,0.04,3.72-2.03,4.56c-2.46,1-4.09-0.14-5.21-2.28
			c-0.35-0.66-0.38-1.49-1.12-1.96c-1.65-0.1-0.14,1.65-1.11,1.93c-0.28,0.03-0.64,0.18-0.82,0.06c-5.16-3.25-8.1-6.85-11.58-12.97
			c-1.89-3.32-3.67-6.96-8.13-9.12c-0.67,5.26-1.75,10-1.78,14.75c-0.06,8.81-0.04,17.66,1.69,26.38c0.18,0.89,0.25,1.81,0.44,2.7
			c1.55,7.17,4.06,9.1,11.44,8.91c8.52-0.22,15.96-3.64,23.06-7.91c21.77-13.07,36.47-32.03,46.89-54.95
			c7.48-16.46,10.19-33.67,10.73-51.43c0.12-3.8,1.2-7.43,1.24-11.29c0.05-4.74-0.66-9.38-0.83-14.08
			c-0.07-1.91,0.62-4.28-2.33-5.29c-1.38-0.48,0.58-2.18-0.39-3.54c-2.21,1.56-3.63,3.8-5.33,5.8c-2.76,3.25-4.35,3.17-7.25-0.22
			c3.71-3.77,8.64-6.61,10.61-12.96c-3.31,2.06-4.65,4.83-6.57,7.01c-1,1.14-1.93,2.32-3.09,3.32c-1.8,1.56-3.37,2.07-5.53,0.2
			c-2.28-1.97-5.05-3.37-7.6-5.03c-3.22-2.1-6.59-3.64-10.5-4.09c-4.54-0.52-5.36-1.77-5.28-6.21c0.13-7.1,3.06-12.91,8.03-17.78
			c1.17-1.14,2.75-1.97,1.37-3.88c1.8-0.71,3.02,0.18,4.3,0.51c4.62,1.19,6.94-0.38,7.46-5.18c0.26-2.41-0.19-4.9,0.83-7.21
			c0.23-0.53,0.65-0.98,1.06-1.59c2.75,1.18,3.22,4.05,4.82,5.94c0.91,1.08-0.39,2.23-0.95,3.25c-1.65,3.03-4.26,5.27-6.54,7.79
			c4.75-1.69,7.26-5.66,9.85-9.51c1.5-2.23,0.33-4.46-0.4-6.56c-2.49-7.14-5.02-14.28-7.69-21.35c-2.7-7.12-5.68-14.11-10.18-20.35
			c-4.49-6.22-9.9-11.34-16.68-14.99c-11.93-6.42-23.83-12.89-35.76-19.3c-1.28-0.69-2.59-1.81-4.2-0.64
			c0.09-0.28,0.18-0.56,0.27-0.83c-0.1,0.26-0.2,0.52-0.29,0.79c-1.23,3.28-1.21,6.76-1.63,10.21c2.62-2.32,1.96-5.98,3.55-8.76
			c2.57,0.89,3.35,2.46,2.33,4.92c-2.38,5.74-4.81,11.46-7.69,16.97c-0.48,0.91-1.3,1.69-2.1,2.37c-1.44,1.23-3.16,2.04-5.05,1.32
			c-2.06-0.78-3.08-2.59-3.04-4.69c0.06-2.88-0.17-5.78,0.46-8.64c0.78-3.57,1.51-7.14,1.22-10.84c-0.28-3.52,2.49-5.33,4.55-7.44
			c-2.71-3.69-3.82-4.14-7.45-2.39c-4.17,2.01-8.48,3.27-13.11,3.46c-1.73,0.07-3.44,0.1-4.36-1.71c-0.88-1.73-0.05-3.26,0.91-4.66
			c1.6-2.33,3.64-4.04,6.58-4.48c1.33-0.2,2.73-0.31,4.12-1.23c-0.1-2.07-1.21-3.91-2.05-5.76c-4.49-9.83-6.75-20.4-10.14-30.59
			c-4.65-13.96-12.82-25.39-23.65-35.12c-0.55-0.5-1.04-1.13-1.89-1.13l0.07,0.12c-0.8-2.42-3.06-3-5.71-4.83
			c1.11,8.09-2.4,13.86-6.13,19.62c-1.79,2.76-2.05,5.97-1.65,9.25c0.59,4.83,1.64,9.59,1.79,14.48c0.25,8.03-0.39,15.81-6.1,22.22
			c-0.17,0.19-0.11,0.58-0.15,0.88l0.1-0.13c-2.69,0.23-5.39,0.43-8.07,0.69c-5.84,0.57-7.8,3.62-6.02,9.27
			c0.37,1.16,0.78,2.27,1.68,3.13l-0.12-0.02c-3.88-1.55-3.88-5-3.81-8.27c0.07-3.16,2.15-5.53,5.08-6.3
			c1.17-0.31,2.41-0.35,3.61-0.51c5.75-0.75,8.32-2.86,9-8.55c0.87-7.19,2.03-14.33-0.31-21.65c-2.18-6.83-1.16-13.52,3.44-19.44
			c1.76-2.26,3.29-4.75,4.21-7.54c1.25-3.78,1.06-7.15-2.34-9.88c-1.92-1.54-3.34-3.52-4.03-6.43c2.48,0.37,4.78,0.51,6.84,1.73
			c13.88,8.22,25.18,18.83,32.73,33.41c6.16,11.9,9.59,24.51,12.68,37.42c1.31,5.46,3.69,10.6,9.41,14.3
			c12.87,8.34,26.39,15.44,39.73,22.89c5.13,2.87,10.02,6.19,15.3,8.54c0.45-0.37,0.91-0.62,0.87-0.73
			c-1.91-6.89,2.09-13.67,0.42-20.55c-0.1-0.43-0.02-0.91,0.03-1.37c0.31-2.79,0.79-5.61,3.81-6.75c2.96-1.13,4.93,0.95,6.74,2.77
			c2.38,2.4,3.69,5.55,5.42,8.41c2.6,4.31,4.14,9.13,7.44,13.17c2.88,3.52,3.98,8.22,4.21,12.84c0.12,2.3,0.25,4.6,0.86,6.76
			c1.32,4.67,0.28,9.23-1.22,13.39c-1.85,5.16-1.42,9.72,0.83,14.44c3.97,8.34,8.17,16.57,9.6,25.88c0.72,4.64,3.18,8.8,4.57,13.3
			c1.96,6.32,2.84,12.79,3.9,19.2c1.66,10.04,3.27,20.14,3.66,30.35c0.1,2.72-0.09,5.5-0.57,8.17c-1.07,5.95,0.56,12.14-1.76,17.98
			c-0.42,1.05-0.23,2.41,0.94,3.82c5.66-2.14,11.23-4.5,15.13-9.85c-4.45-2.25-8.97,0.29-13.43-1.02c0.35-1.98,2.16-2.1,3.37-2.64
			c5.42-2.42,11.12-4.05,16.88-5.39c5.86-1.36,11.69,1.03,13.78,5.39c2.61,5.45,1.02,12.37-4.38,16.24
			c-2.71,1.94-4.37,5.11-7.7,6.24c-0.38,0.13-0.76,0.58-0.92,0.97c-3.01,7.4-9.41,11.55-15.11,16.56
			c-4.04,3.56-7.77,7.53-13.01,8.74c-6.98,1.61-9.79,6.42-12.52,12.34c-4.55,9.86-11.44,18.03-19.15,25.83
			c-6.41,6.49-13.76,11.22-21.12,16.23c-8.8,5.98-18.08,10.55-28.96,10.78c-7.52,0.16-14.03-5.03-15.76-12.44
			c-1.88-8.05-3.2-16.29-2.36-24.45c0.86-8.38-0.47-16.85,1.54-25.14c0.6-2.49,0.97-5.04,1.47-7.56c0.57-2.88-0.64-4.61-3.31-5.64
			c-3.03-1.17-6.1-1.61-9.35-1.57c-6.52,0.1-13.11,0.36-19.35-2.11c-3.78-1.5-7.24-3.43-7.61-8.13c-0.15-1.89,0.01-3.64,2.37-4.3
			c0.97-0.27,1.93-0.97,2.66-1.71c5.77-5.83,12.87-6.98,20.6-6.05c0.45,0.05,0.9,0.27,1.35,0.24c5.15-0.36,9.89,0.83,14.33,3.46
			c0.73,0.43,1.6,0.89,2.84,0.64c1.19-2.17,1.24-4.81,1.83-7.27c1.29-5.46,2.21-10.99,4.49-16.21c1.45-3.31,0.51-7.22,2.17-10.65
			c0.59-1.21-1.09-2.04-2.24-2.41c-2.9-0.94-5.84-1.61-8.94-1.59c-14.26,0.12-18.64-14.24-14.78-23.23
			c0.24-0.55,0.46-1.26,0.91-1.55c5.7-3.68,9.99-9.02,15.79-12.73c4.89-3.12,9.05-7.49,14.03-10.73c2.51-1.63,2.24-4.35,1.16-7.02
			c-1.16-2.87-2.95-5.69-0.71-9c0.77-1.14-0.49-2.26-1.6-2.89c-2.18-1.24-3.02-3.19-3.19-5.58c-0.11-1.56-0.64-2.92-1.95-3.97
			c-0.69-0.55-1.6-1.36-1.65-2.11c-0.33-4.39-3.37-4.73-6.73-4.97c-5.79-0.42-10.93-3.52-16.71-4.21c-1.31-0.16-2.62-0.59-3.98-0.47
			c-6.24,0.53-11.98-1.52-17.64-3.64c-4.13-1.55-4.59-5.92-1.02-8.6c1.55-1.17,3.38-2.21,5.24-2.68c3.76-0.96,7.01-2.56,9.71-5.39
			c1.35-1.42,3.05-1.21,4.97-0.9c2.92,0.48,5.51,2.42,9.47,2c-2.28-4.24-5.43-6.84-8.82-9.21c-0.6-0.42-1.63-0.41-2.03-0.93
			c-5.81-7.46-14.54-7.56-22.68-8.78c-3.61-0.54-6.68-1.88-9.78-3.47c-0.57-0.29-0.78-0.89-0.59-1.56L294.11,127.77z M363.76,231.71
			c-4.61-0.88-4.07-5.92-6.91-8.71c-1,1.17-2.6,1.56-2.69,3.37c-0.17,3.36,4.94,9.65,8.5,10.43c1.36-1.52,0.79-3.42,0.99-5.17
			c1.46-5.18,0.72-10.3-0.01-15.64c-5.39,3.39-5.59,4.12-2.88,9.61C361.77,227.63,362.76,229.67,363.76,231.71z M346.51,305.89
			c-4.65-1.73-9.31-2.89-14-4.05c-5.06-1.25-9.88,0.46-14.82,0.57c-0.56,0.01-1.13,0.42-1.67,0.69c-1.93,0.95-2.07,2.06-0.3,3.35
			c1.4,1.02,3.03,1.55,4.7,1.54c3.03-0.01,6.06,0.21,9.1,0.19c5.91-0.03,11.98-0.26,16.8,4.19c1.54-2.4,0.52-5.25,2.12-7.46
			c0.64-0.88-0.08-1.77-0.92-2.26c-3.61-2.12-7.15-4.52-11.95-2.94C339.41,301.67,344.22,301.62,346.51,305.89z M442.76,309.97
			c6.12-1.5,11.56-3.91,16.2-7.33c4.56-3.37,8.61-7.49,13.1-11.03c4.14-3.26,5.23-6.07,4.03-9.85c-1.12-0.26-2.22-0.06-2.87,0.86
			c-2.21,3.17-5.54,5.13-8.2,7.78c-5.31,5.28-11.42,9.4-18.16,12.48C443.66,304.35,442.85,306.45,442.76,309.97z M360.53,250.51
			c-0.08-2.71,0.37-4.89,1.64-7.1c0.86-1.49,0.49-3.49-1.69-4.52c-2.38-1.12-4.35-2.83-5.3-5.38c-0.8-2.16-2.33-3.84-3.29-5.76
			c-3.04,0.25-3.54,1.8-2.55,4.09c1.58,3.64,3.75,6.89,6.65,9.64c1.08,1.02,2.63,1.83,2.67,4.08c-7-2.54-8.32-9.27-11.91-14.06
			c-4.26,1.27-4.82,2.32-2.85,5.9C347.52,243.96,353.83,247.23,360.53,250.51z M359.41,257.64c2-2.95,0.76-4.7-1.74-5.97
			c-3.91-1.99-7.37-4.56-10.81-7.29c-2.74-2.18-3.18-5.8-5.98-7.79c-2.67,1.38-3.76,3.26-3.35,6.28c0.86,6.23,4.34,9.6,10.87,9.74
			c2.05,0.05,3.74,0.74,5.6,1.39C356.12,254.74,356.97,257.01,359.41,257.64z M473.09,280.48c-2.58-1.18-4.41-1.25-6.14,0.74
			c-1.28,1.47-2.98,2.56-4.47,3.84c-4.36,3.78-8.79,7.47-14.73,8.48c-1.27,0.22-2.01,0.84-1.98,2.03c0.05,1.84-0.94,3.7-0.11,5.87
			C455.73,295.49,465.38,289.6,473.09,280.48z M437.25,323.56c3.93,0.09,6.17-1.74,8.27-4.09c2.61-2.93,5.18-5.99,8.64-7.99
			c2.27-1.31,3.77-3.13,4.94-5.47c-0.41-0.09-0.58-0.18-0.69-0.13c-5.13,2.05-9.66,5.58-15.4,6.12c-0.79,0.07-1.27,0.77-1.66,1.44
			C439.52,316.55,437.91,319.76,437.25,323.56z M319.94,162.07c1.66,2.18,2.96,3.41,5.01,3.15c6.27-0.81,12.04,1,17.72,3.3
			c1.58,0.64,3.11,0.93,4.73,0.42c0.36-2.13,1.18-3.93-1.7-4.97C337.5,161.04,329.19,160.84,319.94,162.07z M411.36,140.36
			c0.17-10.59-1.62-24.3-5.15-26.3c-1.21,6.26,0.69,12.33,0.68,18.44C406.88,135.9,408.14,138.32,411.36,140.36z M346.41,161.83
			c-0.85-3.4-3.32-5.61-6.37-6.13c-3.51-0.6-6.97-0.08-10.45,0.04c-1.99,0.07-3.34,1.08-3.24,3.77
			C333.32,158.8,339.95,159.66,346.41,161.83z M412.67,123.95c2.52,7.83-0.01,16.54,4.06,24.11
			C416.91,139.76,417.5,131.38,412.67,123.95z M418.79,133.67c0.33,6,1.3,11.96,0.32,18c-0.29,1.79,1.13,2.93,2.74,3.6
			c1.56-1.35,1.88-2.89,1.15-4.59c-1.71-3.96-1.88-8.2-2.31-12.38C420.5,136.61,420,135.08,418.79,133.67z M423.35,218.32
			c4.07-4.48,8-9.05,9.19-15.24C428.61,207.63,426.66,213.4,423.35,218.32z M434.4,212.25c-0.32-0.19-0.64-0.37-0.96-0.56
			c-3.26,4.58-6.53,9.16-9.79,13.74C428.41,221.91,432.28,217.73,434.4,212.25z M428.16,230.55c5.66-3.88,8.11-7.56,7.94-11.76
			C433.03,222.66,431.16,227.03,428.16,230.55z M403.78,134.36c1.31-3.09,0.94-6.98-0.95-10.12
			C400.33,131,400.4,131.8,403.78,134.36z M350.88,115.64c-1.21,2.39-1.81,4.8-1,8.32C351.17,120.67,352.53,118.36,350.88,115.64z
			 M323.75,299.28c1.28,0.42,2.2,0.01,3.61-0.66C325.77,298.39,324.75,298.37,323.75,299.28z M331.94,298.8
			c-0.12,0.06-0.31,0.08-0.36,0.18c-0.14,0.27,0.03,0.44,0.41,0.43c0.13-0.01,0.31-0.08,0.36-0.17
			C332.49,298.97,332.33,298.82,331.94,298.8z"/>
		<path class="st0" d="M397.22,169.41c1.83-2.17,2.52-4.76,2.64-7.51c0.11-2.54,0.55-4.96,2.15-7.17
			c2.19,5.98-0.61,11.96-0.06,17.91c-0.07,0.21-0.78,0.29-0.14,0.65c0.01-0.25,0.01-0.5,0.02-0.75c1.82-1.47,2.21-3.69,2.17-5.69
			c-0.06-2.58,0.87-4.67,1.77-6.86c1.22,0.29,1.74,1.09,1.57,2.06c-0.85,4.73-0.45,9.64-2.21,14.27c-0.64,1.69-1.53,2.44-3.23,2.62
			c-5.99,0.6-11.39,3.23-17,5.13c-2.4,0.81-4,2.71-5.89,4.22c-4.73,3.75-6.72,3.89-10.36,0.71c-3.78-3.31-4.42-7.53-1.95-11.78
			c1.34-2.3,3-4.26,5.33-5.5c6.95-3.71,13.95-7.31,19.42-13.19c2.38,2.17,0.08,4.57,1,6.69c3.23-3.05,0.45-8.6,5.11-11.5
			c1.54,3.69,0.51,7.08,0.32,10.38c-0.11,1.79-1.06,3.51-0.55,5.38c-0.14,0.08-0.27,0.16-0.41,0.25
			C397.02,169.61,397.12,169.51,397.22,169.41z"/>
		<path class="st0" d="M296.21,26.24c0.01,2.69,1.39,4.99,2.54,7.22c4.61,8.92,8.72,18.06,12.04,27.51c3,8.54,6.78,16.89,7.62,26.07
			c0.05,0.59,0.17,1.19-0.72,1.67c-1.31-1.59-1.04-3.68-1.61-5.47c-2.55-7.96-4.81-16.02-7.6-23.89c-2.63-7.44-6.03-14.6-9.63-21.63
			c-1.33-2.6-1.96-5.43-3.17-8.04c-0.67-1.44,0.32-2.24,0.61-3.32L296.21,26.24z"/>
		<path class="st0" d="M299.08,114.15c-10.42-7.21-20.85-14.41-31.27-21.62c0.2-0.29,0.4-0.58,0.6-0.87
			c10.7,6.83,21.92,12.89,31.44,21.45C299.59,113.46,299.34,113.8,299.08,114.15z"/>
		<path class="st0" d="M283.76,91.5c1.82,1.07,2.1-0.4,2.2-2.34c2.68,2.82,6.38,3.26,6.82,7.53c0.19,1.79,2.89,2.93,4.52,4.28
			c2.51,2.07,5.22,4.01,5.96,7.76c-1.99-1.73-3.91-3.55-6-5.16c-3.47-2.68-6.59-5.81-10.6-7.8c-1.44-0.72-2.64-2.04-3.39-3.6
			C283.47,91.96,283.62,91.74,283.76,91.5z M287.51,93.73c0.1-0.06,0.25-0.1,0.27-0.18c0.03-0.1-0.02-0.28-0.1-0.34
			c-0.25-0.19-0.42-0.09-0.4,0.24C287.3,93.55,287.43,93.64,287.51,93.73z"/>
		<path class="st0" d="M290.59,46.01c5.15,6.44,9.91,13.05,10.82,21.52C297.53,60.48,294.12,53.2,290.59,46.01z"/>
		<path class="st0" d="M323.96,85.74c-3.09-8.13-4.95-16.63-8.14-24.71c-0.27-0.69-0.48-1.77,0.55-3.01
			C319.77,67.25,323.77,75.97,323.96,85.74z"/>
		<path class="st0" d="M296.46,80.29c5.58,4.88,11.96,9.09,15.58,15.94C306.07,91.71,300.81,86.49,296.46,80.29z"/>
		<path class="st0" d="M303.99,72.16c4.19,6.05,8.69,11.98,11.99,19.39C311.9,89.09,305.38,78.57,303.99,72.16z"/>
		<path class="st0" d="M296.95,71.16c-4.14-4.23-7.1-9.2-9.45-14.55C291.4,60.96,295.56,65.15,296.95,71.16z"/>
		<path class="st0" d="M281.1,111.31c6.19,2.17,11.23,5.22,16.91,8.59C293.86,120.43,285.37,115.95,281.1,111.31z"/>
		<path class="st0" d="M307.35,100.47c-4.36-1.79-7.86-4.71-10.89-8.28C300.71,94.12,304.6,96.53,307.35,100.47z"/>
		<path class="st0" d="M284.17,120.45c-3.15,0.75-4.99-1.02-7.14-4c3.72-0.04,5.51,1.81,7.08,4.07L284.17,120.45z"/>
		<path class="st0" d="M287.24,121.83c2.37,1.88,5.78,2.57,6.86,5.94l0.12-0.13c-3.48-0.61-6.15-2.16-6.9-5.94L287.24,121.83z"/>
		<path class="st0" d="M280.46,89.55c1.31,0.3,2.46,0.85,3.3,1.96c-0.14,0.23-0.29,0.46-0.47,0.66c-1.41-0.41-3.15-0.49-2.71-2.73
			L280.46,89.55z"/>
		<path class="st0" d="M278.33,87.97c1.21-0.16,1.6,0.81,2.13,1.57l0.12-0.11c-1.16,0.07-2.09-0.17-2.15-1.59L278.33,87.97z"/>
		<path class="st0" d="M284.11,120.53c0.25,0.07,0.5,0.14,0.75,0.21c-0.56,0.71-0.54,0.01-0.69-0.28L284.11,120.53z"/>
		<path class="st0" d="M287.32,121.71c-0.21,0.07-0.41,0.14-0.62,0.21c0.05-0.06,0.1-0.17,0.16-0.17c0.13,0,0.26,0.05,0.38,0.08
			L287.32,121.71z"/>
		<path class="st0" d="M413.62,280.49c-0.12,0.16-0.23,0.33-0.35,0.49c0.12-0.18,0.25-0.37,0.37-0.55L413.62,280.49z"/>
		<path class="st0" d="M266.02,100.94c0,0.09,0.01,0.18,0.01,0.27c0.27-0.21,0.23-0.31-0.13-0.29L266.02,100.94z"/>
	</g>
	<path class="st2" d="M338.58,23.06c3.22,9.76,5.76,19.86,3.54,30.12c-3.68,17.02-7.51,34.09-12.76,50.76
		c-7.71,24.48-16.39,48.72-25.25,72.88c-22.02,60.03-44.37,119.97-66.6,179.93c-0.87,2.36-1.85,4.69-3,7.58
		c4.29,1.43,8.1,2.7,12.01,4c-0.62,1.56-1.2,3.46-1.39,3.43c-4.09-0.63-8.13-1.47-12.58-2.35c-0.52,1.3-1.04,2.62-1.56,3.93
		c-14.19,35.72-28.38,71.43-42.56,107.15c-3.75,9.45-4.72,9.88-14.96,6.56c-0.78-0.25-1.63-0.42-2.31-0.83
		c-2.74-1.64-6.08-2.91-7.83-5.25c-0.84-1.12,1.31-4.35,2.21-6.59c14.05-35.26,28.13-70.5,42.16-105.76
		c0.92-2.32,1.55-4.73,2.4-7.36c-2.89-0.96-5.38-1.76-7.85-2.62c-4.32-1.51-4.32-1.52-1.53-5.79c3.69,1.23,7.49,2.49,11.4,3.8
		c45.24-111.54,87.92-223.25,122.75-339.16C336.53,19.93,338.01,21.35,338.58,23.06z M237.22,350.44
		c13.12-34.37,26.59-68.64,39.24-103.16c14.13-38.57,27.63-77.34,41.18-116.09c8.69-24.86,17.71-49.66,21.72-75.62
		c1.26-8.18,1.22-16.28-1.67-25.44c-0.91,7.33-1.38,13.46-2.47,19.5c-4.88,27.08-13.65,53.29-23.07,79.26
		c-26.48,73.02-53.5,145.87-80.43,218.75c-1.44,3.91-0.3,5.22,4.12,5.45C236.36,352.11,236.88,351.3,237.22,350.44z M172.78,462.09
		c0.16,0.05,0.31,0.1,0.47,0.16c7.42-18.68,14.84-37.37,22.26-56.05c-0.16-0.05-0.31-0.1-0.47-0.16
		C187.62,424.73,180.2,443.41,172.78,462.09z M202.32,398.63c2.99,5.28,3.34,5.41,10.66,3.8
		C210.56,397.81,207.06,396.65,202.32,398.63z M189.12,462.21c-2.38-4.46-5.91-5.81-10.88-3.55
		C180.61,463.21,184.17,464.48,189.12,462.21z M217.52,390.32c-2.24-4.38-5.59-5.67-10.71-3.51
		C209.3,391.23,212.65,392.58,217.52,390.32z M173.65,470.52c1.98,4.68,5.51,5.61,10.62,3.81
		C182.05,469.51,178.45,468.77,173.65,470.52z M197.56,410.6c3.31,5.52,3.89,5.72,10.49,3.52
		C205.78,409.85,202.29,408.72,197.56,410.6z M193.54,450.56c-2.81-5.52-3.42-5.76-10.62-3.74
		C187.17,451.72,187.17,451.72,193.54,450.56z M216.17,350.63c-0.11,0.29-0.23,0.57-0.34,0.86c6.61,2.2,13.22,4.4,19.83,6.6
		c0.13-0.28,0.27-0.56,0.4-0.84C229.43,355.05,222.8,352.84,216.17,350.63z M214,355.96c-0.11,0.29-0.23,0.57-0.34,0.86
		c6.62,2.21,13.25,4.41,19.87,6.62c0.13-0.28,0.26-0.56,0.39-0.84C227.28,360.39,220.64,358.18,214,355.96z M209.15,368.57
		c-0.11,0.26-0.21,0.51-0.32,0.77c6.56,2.19,13.12,4.37,19.68,6.56c0.1-0.26,0.2-0.51,0.3-0.77
		C222.26,372.94,215.7,370.75,209.15,368.57z M203.12,426.51c-2.96-5.45-4.19-5.87-10.54-3.61
		C194.8,427.23,198.43,428.25,203.12,426.51z M198.59,438.24c-2.37-4.37-5.82-5.71-10.76-3.58
		C190.06,439.32,193.58,440.45,198.59,438.24z"/>
	<g>
		<path class="st0" d="M140.4,415.21c-0.99-0.12-1.78-0.79-2.19-1.49c-2.95-4.98-7.29-8.98-10.13-13.99
			c-3.75-6.6-7.3-13.34-10.51-20.22c-8.11-17.34-12.14-35.47-11.29-54.8c0.84-18.86,3.3-37.51,5.78-56.17
			c0.35-2.63,0.66-5.24-2.39-6.64c-1.5-0.69-1.54-2.28-2.1-3.61c-0.3,0.91,0.51,1.9-0.42,2.63c-1.47,0.1-2.03-1.92-3.99-1.46
			c0.68,2.29,2.3,3.82,4.38,3.5c4.11-0.63,3.94,2.19,3.78,4.45c-0.26,3.77-1.14,7.5-1.67,11.25c-2.64,18.66-5.04,37.34-5.22,56.23
			c-0.06,6.91,1.79,13.57,3.21,20.23c4.77,22.33,15.74,41.69,29.45,59.64c2.37,3.1,4.05,6.71,7.25,9.22c1.4,1.1,2.03,3.01,1.74,4.98
			c-0.25,1.66-1.51,3.63-2.69,3.15c-4.36-1.8-8.57,0.67-12.93-0.19c-3.03-0.59-5.28-1.69-8.01-4.31c4.6-1.46,8.87-0.28,13.43-1.65
			c-6.44-1.99-13.24-0.01-19.57-3.79c2.86-1.73,5.01,0.19,7.65-1.26c-7.23-2.01-14.36-3.39-18.24-10.6c2.91-0.63,5.25,1.69,8.3,0.96
			c-5.45-3.25-13.03-3.45-14.97-11.29c2.9-0.73,5.06,1.3,8.52,1.38c-3.39-2.85-7.3-3.31-9.63-6.09c-2.42-2.89-1.6-6.64-2.99-9.95
			c3.69,0.22,5.59,3.76,9.29,3.97c-2.61-2.27-4.98-4.33-7.36-6.4c0.27-0.34,0.54-0.68,0.81-1.02c0.8-0.56,1.81,0.4,2.6-0.36
			c-7.39-6.16-13.62-13.13-16.35-22.72c3.88,3.81,8.07,7.18,12.81,9.97c-1.68-1.84-3.12-4.02-5.1-5.46
			c-4.41-3.22-6.78-8.11-10.34-12c-2-2.18-2.53-5.08-2.83-8.06c5.26,4.89,9.68,10.54,15.19,15.16c-2.26-3.73-5.47-6.75-7.99-10.27
			c-3.9-5.44-9.28-10.12-9.95-17.42c-0.08-0.85-0.5-1.84,0.96-2.72c4.54,6.44,9.04,13.03,16.11,18.44
			c-1.29-3.15-3.35-4.86-4.97-6.59c-4.4-4.72-7.34-10.3-10.47-15.8c-1.25-2.2-1.22-2.31,0.69-6.11c3.91,6.81,8.9,12.42,14.89,17.23
			c-6.5-8.59-14.6-16.35-15.18-28.17c4.35,5.25,8.58,10.52,14.27,14.62c-0.09-1.34-0.84-2.07-1.59-2.75
			c-4.75-4.35-8.02-9.84-11.53-15.13c-1.44-2.17-2.58-4.47-0.88-7.56c5.03,6.99,10.36,13.2,17.44,17.71
			c-2.05-2.35-3.97-4.83-6.19-7.01c-4.23-4.14-7.86-8.66-10.45-14.03c-1.06-2.21-0.56-4.03,0.35-7.07
			c4.2,5.48,7.6,10.65,13.39,13.34c-1.33-1.58-2.44-3.45-4.04-4.68c-3.53-2.71-5.19-6.67-7.51-10.2c-1.36-2.06-1.12-3.96,0.77-6.31
			c4.36,4.76,7.91,10.13,13.5,13.28c0.37,0.18,0.74,0.37,1.11,0.55c0-0.14,0.06-0.32-0.01-0.4c-0.38-0.43-0.79-0.25-1.2-0.02
			c0.38-1.5-0.8-2.36-1.65-3.01c-4.57-3.49-7.34-8.37-10.46-13c-0.24-0.35-0.61-0.61-1.13-1.12c-1.64,2.69-2.82,5.4-3.54,8.31
			c-2.08,8.51-3.69,17.13-3.14,25.89c0.33,5.38-0.1,10.66-0.85,15.88c-1.29,9.02,0.86,17.48,3.51,25.83
			c2.62,8.25,6.86,15.89,10.04,23.93c3.17,8.01,6.65,15.99,8.07,24.59c0.78,4.72,3.39,8.37,6.25,11.96c1.59,1.99,3.56,3.77,3.95,6.5
			l0.11-0.14c-5-4.53-8.94-9.96-12.62-15.52c-6.55-9.88-12.7-20.06-17.46-30.93c-6.73-15.36-11.86-31.25-14.72-47.83
			c-0.36-2.07-0.45-4.21-1.49-6.35c-2.87,0.55-3.96,3.15-5.74,4.86c-1.81,1.73-3.28,4.83-6.24,3.44c-2.9-1.36-2.62-4.63-2.05-7.3
			c2.12-9.8,4.11-19.68,10.25-28.01c2.09-2.84,1.47-6.12,1.65-9.21c0.66-10.92,0.36-21.93,2.38-32.74
			c1.44-7.71,2.19-15.54,5.56-22.87c2-4.36,2.61-9.33,4.17-13.91c2.62-7.73,4.96-15.56,8.1-23.1c0.6-0.09-0.42,0.46-0.2-0.1
			c0.09-0.24,0.33-0.09,0.08,0.2c-2.17,1.41-4.41,1.94-7.14,1.94c-7.24,0-13.73,3.35-20.5,5.45c-6.21,1.93-12.05,4.78-18.08,7.16
			c-3.95,1.56-7.35,4.02-10.52,6.81c0,0,0.15-0.13,0.15-0.13c-0.61,0.12-1.22,0.25-1.83,0.37c-0.12-0.12-0.24-0.25-0.36-0.38
			c0.2-1.97,1.43-3.33,2.83-4.53c6.07-5.17,12.86-8.91,20.39-11.78c9.93-3.79,20.18-5.51,30.59-6.79c3.17-0.39,4.85-1.77,6.2-4.95
			c7.57-17.83,16.2-35.24,28.73-50.1c11.68-13.85,26.66-22.44,45.37-23.19c3.35-0.13,6.06,1.18,8.03,3.61
			c4.66,5.74,8.09,12.12,8.79,19.67l0.07-0.13c-1.66,2.24,0.09,4.71-0.48,7.05c-0.3,1.24,0.43,2.74-1.18,3.85
			c-1.84-3.96-1.03-8.78-4.95-13c1.03,7.97,4.36,14.71,3.05,22.64c-1.76-3.24-2.23-6.5-4.5-9.46c-0.13,5.31,3.52,10.06,1.24,15.9
			c-3.16-3.22-2.93-7.26-5.92-9.69c-0.04,3.13,1.58,5.63,2.17,8.37c0.38,1.76,0.42,3.25-0.47,4.78l0.1-0.15
			c-0.96,0.15-1.92,0.29-2.87,0.44c-0.39-2.48-0.66-5.02-3.48-7.31c0.66,2.53,1.09,4.24,1.56,5.95c0.28,1.02,0.97,1.46,2.03,1.21
			c0.02,0.39,0.03,0.77,0.05,1.16c0,0,0.1-0.13,0.1-0.13c-0.29,0.39-0.57,0.78-0.86,1.17c0,0,0.1-0.09,0.1-0.09
			c-3.37,2.99-4.85-1.11-7.35-2.12c2.55,3.88,2.33,7.45-0.01,11.14c-0.87,1.37-1.2,3.11-1.6,4.72c-1.49,6.08,1.58,14.66,6.44,18.19
			l-0.19-0.15c-0.37,1.52,0.59,2.88,0.73,5.08c-2.25-2.57-2.77-5.77-5.56-7.01c-0.06-0.22-0.07-0.55-0.21-0.62
			c-0.27-0.14-0.49,0.08-0.37,0.36c0.06,0.14,0.39,0.16,0.6,0.23c0.42,3.38,2.5,6.13,3.55,9.27c0.5,1.49,1.27,2.83-0.74,4.22
			c-2.7-3.19-3.74-7.39-6.53-10.58c-0.01,3.45,1.91,6.3,3.11,9.34c1.66,4.2,1.78,4.19-2.93,6.63c-1.99-3.24-3.43-6.97-6.69-9.96
			c0.29,2.97,2.16,4.72,2.94,6.98c1.9,5.53,2.08,5.47-3.72,7.85c-2.02-1.68-2.37-4.79-5.19-6.53c1.33,5.55,5.65,10.42,2.45,16.5
			c-3.3-1.44-2.84-6.09-6.97-7.19c1.5,2.66,2.72,4.98,4.09,7.21c2.86,4.64,2.88,5.16-0.34,10.51c-3.96-5.37-4.58-12.48-9.54-17.11
			c0.4,3.5,2.2,6.48,3.86,9.38c1.66,2.91,2.65,6.12,4.55,8.89c1.45,2.12-0.2,3.62-1.05,5.72c-3.86-3.34-3.4-8.9-7.53-12.36
			c-0.2,3.62,1.64,5.96,2.92,8.29c1.26,2.29,2.18,4.68,3.13,7.06c0.74,1.86,1.47,4.09-1.18,5.37l0.16,0.12
			c-0.61-2.83-1.13-5.69-4.54-6.64c-1.74-0.48-1.6-2.11-1.75-3.38c-0.67-5.59-1.23-11.19-1.82-16.78c-0.1-0.91-0.02-1.84-0.21-2.72
			c-0.41-1.82-1.04-3.73-2.98-4.29c-2.16-0.62-3.29,1.17-4.31,2.68c-2.31,3.4-4.67,6.77-6.77,10.29
			c-3.89,6.51-8.83,11.97-15.25,16.07c-4.08,2.6-8.51,4.04-13.31,4.33c-2.99,0.18-3.31-0.16-3.99-3.32c1.39-1.15,1.98,1.1,3.18,0.75
			c0.46-0.29,0.48-0.78,0.25-1.13c-0.76-1.13-1.62-2.2-2.4-3.31c-0.74-1.05-0.6-1.96,0.59-2.68c1.81,0.62,1.95,3.07,4.09,3.65
			c0.17-1.96-1.16-3.38-1.58-5.04c-0.27-1.07-0.82-2.07,0.5-2.73c1.08-0.54,1.67,0.34,2.22,1.04c0.91,1.15,1.57,2.52,2.95,3.32
			c0.64-1.52-0.71-2.39-0.82-3.52c-0.14-1.37-2.23-2.86-0.37-4.05c1.98-1.27,2.34,1.17,3.35,2.08c0.65,0.59,0.87,1.64,1.92,1.81
			c0.78-2.68-4.18-6.29,1.24-8.29c1.71,1.09,2.43,2.82,4.04,4.72c-0.15-3.94-3.96-8.2,1.85-10.49c1.97,0.81,2.2,3.29,4.26,4.58
			c-1.72-5.3-4.84-10.58-0.33-16.04c1.84,2.04,3.22,4.35,4.86,7.28c0.24-5.8-5.41-9.59-3.54-15.59c3.08,2.33,4.3,5.69,6.78,7.98
			c-0.87-3.6-2.42-6.91-4.49-9.83c-1.78-2.51-2.09-4.87-0.98-8.33c3.3,4.51,5.53,9.18,9.58,12.6c-2.93-5.46-7.16-10.65-8.43-16.47
			c-1.3-5.99-4.54-11.63-4.82-18.73c2.79,1.46,3.21,3.51,4.28,5.02c1.04,1.46,1.96,3.01,3.39,5.2c-0.46-4.61-2.79-7.61-4.38-10.87
			c-1.49-3.05-1.62-2.98,0.74-6.54c3.06,1.92,3.82,5.7,6.8,8.31c-0.38-3.86-2.61-6.38-4.36-9.01c-1.71-2.57-1.54-4.36,1.22-6.23
			c2.39,2.37,3.63,5.49,5.91,7.98c-0.12-2.9-1.76-5.28-3.11-7.75c-1.58-2.88-1.57-2.89,1.97-5.71c3.29,4.66,5.29,10,8.37,14.74
			c-0.75-5.92-4.3-10.75-6.51-16.01c1.14-2.16,3.24-2.33,5.03-3.31c3.04,3.12,3.94,7.29,6.71,11.36c-0.03-4.24-1.91-7.01-3.12-9.95
			c-0.63-1.53-1.2-2.76,0.66-3.85c1.77-1.03,3.14-0.83,4.28,0.88c0.82,1.22,1.52,2.55,3.48,3.63c-0.9-2.39-1.58-4.19-2.26-5.98
			c3.6-2.71,3.6-2.71,8.96,3.05c0.48-2.24-0.91-3.62-1.76-5.02c-0.66-1.11-0.91-1.83,0.13-2.72c1.12-0.95,1.97-0.36,2.75,0.45
			c1.25,1.3,2.45,2.65,3.74,4.06c0.93-2.03-0.52-3.45-1.58-4.25c-4.51-3.42-3.71-8.22-3.79-12.82c-0.01-0.87,0.25-1.74,0.45-3.06
			c-1.35,0.93-1.64,1.98-1.62,3.16c0.03,2.13,0.12,4.26,0.16,6.38c0.09,4.65-0.05,4.38-4.4,6.54c-5.42,2.68-11.06,4.86-16.45,7.55
			c-7.82,3.91-11.53,11.39-15.1,18.83c-0.65,1.36-0.81,2.96-1.47,4.31c-1.75,3.58-1.47,6.87,0.78,10.17
			c1.32,1.93,1.77,4.31,1.56,6.58c-1.01,11.32-1.27,22.77-5.91,33.47c-1.76,4.07-4.25,7.34-8.15,9.49c-1.2,0.66-2.36,1.38-3.53,2.1
			c-5.11,3.16-8.73,7.29-10.04,13.43c-1.14,5.32,1.46,8.73,6.97,8.19c2.42-0.24,4.78-0.8,7.08-1.71
			c8.62-3.44,15.25-9.23,20.31-16.91c2.25-3.42,4.42-6.89,6.74-10.25c1.27-1.84,2.38-3.89,4.42-5.03c2.47,1.07,2.35,3.24,2.37,5.12
			c0.05,6.1,0.75,12.12,1.42,18.17c0.68,6.21,3.89,11.08,6.96,16.13c0.39,0.64,1.11,1.09,1.96,0.83c1.43-0.44,1.74-1.63,1.67-2.91
			c-0.24-4.01,0.61-7.83,1.49-11.71c0.68-3,1.72-5.83,2.83-8.65c1.78-4.55,3.3-9.16,3.65-14.08c0.21-2.93,1.57-5,4.09-6.69
			c4.14-2.78,8.03-5.95,12.03-8.96c8.68,14.68,14.65,30.17,17.76,46.63c2.4,12.7-0.12,18.05-13.25,22.28
			c-6.16,1.99-11.35,0.54-15.94-3.81c-0.87-0.83-1.65-1.81-3.45-2.47c-3.84,11.8-4.48,24.25-7.9,36.17
			c0.03-4.07-2.09-7.43-3.24-11.84c-0.3,2.97,1.04,5.11,0.31,7.42c-1.89,0.43-1.63-2.05-3.04-2.18c-0.57,0.2-0.49,0.72-0.33,1.05
			c1.21,2.45,2.15,5,2.89,7.63c0.45,1.59,0.28,3.14,0.33,5.43c-2.83-2.33-3.54-5.25-5.56-7.63c-0.28,1.9,0.4,3.05,0.96,4.25
			c2.45,5.23,4.06,10.53,2.4,16.44c-1.22,4.33,0.05,9.08-1.95,13.61c-2.79-2.12-4.21-5.24-7.21-7.82c1.13,5.46,6.02,8.34,7.07,13.53
			c-3.03-0.41-3.54-3.14-6.11-4.03c1.26,3.49,3.03,5.86,6.14,6.96c-0.18,2.32-0.34,4.37-0.53,6.74c-2.11-0.48-2.8-2.45-4.74-3.71
			c0.35,2.53,1.25,4.43,2.84,5.29c2.73,1.48,2.68,3.74,2.76,6.22c0.11,3.33,0.67,6.64,0.3,10.22c-4.1-2.11-6.07-5.15-5.66-9.69
			c1.35,0.72,1.42,3.1,3.86,2.71c-0.55-2.54-2.12-4.56-3.7-6.13c-1.9-1.89-2.44-4.08-3-6.39c-2.06-8.44-2.63-17.11-3.49-25.71
			c-0.47-4.66,0.57-9.42,1.84-13.96c1.2-4.28,1.94-8.61,2.45-13c0.02-0.15,0.02-0.31,0.06-0.45c1.78-6.37,3.99-12.7,0.95-19.32
			c-0.15-0.33,0.14-0.87,0.22-1.31c0.07-0.37,0.29-0.53,1.15-0.43c1.61,3.43,2.04,7.58,3.88,11.2c1.57-5.68-2.55-9.79-3.62-15.13
			c-2.69,2.31-3.3,4.94-2.49,7.64c1.38,4.61,0.3,8.75-0.75,13.31c-4.02,17.52-7.11,35.17-2.5,53.2c1.96,7.66,3.08,15.52,4.69,23.27
			c1.7,8.17,7.78,20.36,13.2,26.39c-0.71-8.83-4.83-16.53-3.6-25.06c0.78,5.07,1.44,10.16,2.36,15.21
			c1.49,8.19,4.84,15.66,9.19,22.71c0.39,0.63,0.52,1.42,0.77,2.13L140.4,415.21z M100.44,261.84c-0.69,3.79,1.81,6.11,6.26,5.8
			c-1.8-2.21-5.4-2.54-6.13-5.87c-0.28-0.21-0.25-0.27,0.08-0.15C100.58,261.68,100.51,261.76,100.44,261.84z M60.51,290.31
			c-2.4-0.31-3.13,1.56-3.82,3.17c-1.62,3.77-3.21,7.57-4.5,11.46c-0.9,2.72-1.36,5.6-1.9,8.42c-0.53,2.78-0.9,5.59-1.34,8.38
			c0.33,0.07,0.66,0.14,0.99,0.22c2.46-10.94,5.38-21.73,10.48-31.76c0-0.32,0-0.65,0-0.43C60.4,289.6,60.46,289.96,60.51,290.31z
			 M99.16,282.7c-0.08,0.34-0.47,0.77,0.27,0.86c-0.12-0.25-0.24-0.5-0.36-0.74c-4.07-2.72-7.54-6.04-10.33-10.09
			c-1.71-2.47-0.78-3.45,1.85-3.94c3.02,5.97,8.48,8.92,13.98,11.92c-4.51-4.48-10.24-7.82-13.01-14.16c-2.62,1.7-5.8,2.22-7.33,5.3
			c1.89-0.07,2.59,1.33,3.49,2.53c1.1,1.45,2.03,3.23,3.48,4.17C93.68,280.18,95.15,283.99,99.16,282.7z M167.73,251.79
			c0.47,0.14,0.74,0.02,0.78-0.35c0.03-0.29,0.04-0.64-0.08-0.88c-3.72-7.32-8.24-14.1-13.86-20.1c-1.67-1.78-2.85-3.47-0.69-5.92
			c4.15,2.25,5.58,6.97,9.61,10.08c-0.74-2.43-1.51-4.02-2.71-5.41c-0.81-0.94-1.78-2.1-1.37-3.24c1.18-3.28-1.11-5.22-2.7-7.27
			c-1.07-1.38-2.2-2.59-2.59-4.57c-5.03,17.5-7.62,35.48-14.13,53.11c1.57-1.19,1.43-2.93,3.46-2.92c2.75,2.31,4.58,6.01,8.13,8.6
			c-1.35-5.47-7.26-8.06-6.74-13.89c4.61,3.73,7.49,8.9,11.66,12.95c-2.39-5.33-5.59-10.09-9.28-14.5c-1.44-1.72-1.84-3.07,0.61-4.9
			c5.43,4.98,9.07,11.41,13.4,17.31c-0.03-1.04-0.28-1.91-0.66-2.72c-2.76-5.95-6.75-11.06-11.05-15.94
			c-1.3-1.48-2.68-2.95-0.64-5.27c6.79,6.41,11.73,13.85,15.72,22.21c0.72-1.5,0.22-2.6-0.26-3.7c-3.08-6.98-7.16-13.27-12.74-18.55
			c-3.46-3.28-3.43-3.34-0.41-7.68c7.96,7.84,12.68,17.69,18,28.28c-0.12-2.6-0.3-4.14-1.06-5.44c-4.82-8.22-8.1-17.43-15.41-24.07
			c-1.84-1.67-1.66-3.54-0.05-6.06C158.64,237.67,163.4,244.61,167.73,251.79z M64.13,293.62c-5.28,3.67-9.68,14.86-9.58,23.99
			C56.44,309.09,60.43,301.42,64.13,293.62z M107.73,275.08c-4.56-2.71-8.54-6.12-12.54-10.73
			C96.64,270.04,100.5,273.24,107.73,275.08z M62.33,307.83c2.12-4.29,4.23-8.58,6.35-12.87c-0.3-0.14-0.59-0.28-0.89-0.41
			C64.09,298.07,62.68,302.73,62.33,307.83z M136.12,121.78c2.37,2.52,4.6,4.87,6.82,7.23c-0.28-3.36-3.15-5.07-4.17-7.64
			c0.72-1.44,2.28-0.87,3.21-1.91C139.88,119.97,137.78,119.77,136.12,121.78z M124.46,324.46c-1.24-4.65-2.18-8.24-5.24-10.82
			C120.99,316.88,119.15,321.67,124.46,324.46z M115.17,189.55c-1.34-6.02-2.78-8.32-5.93-9.7
			C110.62,183.61,113.11,186.43,115.17,189.55z M110.49,198.58c0.22-0.02,0.4,0,0.51-0.07c0.12-0.07,0.28-0.28,0.25-0.35
			c-1.47-3.27-2.03-7.05-5.57-10.11C106.1,192.71,109.11,195.28,110.49,198.58z M123.49,332.91c-0.12-4.79-3.11-7.09-4.84-11.19
			C119.12,326.44,120.43,329.46,123.49,332.91z M135.74,130.2c0.41,2.76,2.31,4.31,4.34,5.77
			C139.3,133.54,138.5,131.15,135.74,130.2z M113.26,174.79c0.14,2.78,2.09,3.66,3.63,4.84
			C116.36,177.68,115.93,175.67,113.26,174.79z"/>
		<path class="st0" d="M272.49,439.66c-16.19,10.37-33.49,17.7-52.8,21.32c1.57,2.69,3.78,2.22,4.92,3.89c-1,0.88-2.25,1.2-3.51,1.5
			c-13.82,3.32-27.51,3.5-41.51,0.28c-14.12-3.25-25.97-10.74-38.09-17.91c-1.49-0.88-2.61-2.1-2.52-4.02l-0.06,0.07
			c0.06-5.09,1.43-9.34,6.34-12.04c2.36-1.3,2.34-4.04,1.96-6.56c-0.22-1.49-1.29-2.77-1.07-4.37l-0.07,0.1
			c3.44,2.49,6.88,4.98,10.33,7.46c10.93,7.85,23.4,11.25,36.56,12.65c10.81,1.15,21.56-0.36,32.3-1.08
			c4.63-0.31,9.19-1.86,13.74-2.98"/>
		<path class="st0" d="M245.42,445.17c-6.54,0.17-13.04,0.63-19.49,1.61c-6.46,0.98-12.95,1.9-19.49,1.71
			c-13.13-0.36-26.32-0.1-39.29-2.79c-0.48-1.4-1.5-1.76-3.17-1.86c0.96,1.58,2.15,1.57,3.26,1.73c1.93,2.49,4.83,2.98,7.61,3.44
			c9.47,1.58,19.05,1.18,28.59,1.55c6.13,0.24,11.99-1.8,18.09-1.9C229.63,448.54,237.49,446.57,245.42,445.17"/>
		<path class="st0" d="M239.7,440.57c-7.85,1.8-15.83,3.55-23.83,4.05c-13.68,0.86-27.38,0.39-40.77-3.3
			c-1.69-0.47-3.43-1.41-5.29-0.48c0.04-0.21,0.09-0.43,0.13-0.64c-0.05,0.06-0.14,0.12-0.14,0.17c0.01,0.12,0.07,0.25,0.1,0.37
			c0.74,0.7,1.22,1.54,2.32,2.02c2.95,1.29,6.08,1.54,9.13,2.28c7.94,1.92,15.99,1.8,24.03,2.11c9.08,0.36,17.75-2.35,26.64-3.45"/>
		<path class="st0" d="M188.55,456.27c-3.33-1.85-7.23-2.25-10.72-2.5c-5.54-0.39-10.09-3.01-15.05-4.68
			c-2.79-0.94-3.98-2.82-3.32-5.94c0.5-2.37,1.51-4.8,0.27-7.35c-1.08,5.71-3.38,11.07-5.09,17.8c1.86-1.33,2.65,0.13,3.78-0.61
			c-0.93-0.96-1.52-1.95-0.28-3.06c0.87-0.78,1.65-0.33,2.46,0.15C169.21,455.24,178.85,455.9,188.55,456.27z"/>
		<path class="st0" d="M200.44,467.02c-1.94-1.11-38.96-12.1-40.25-11.95C172.85,461.72,186.2,464.08,200.44,467.02z"/>
		<path class="st0" d="M235.58,451.12c-10.67,1.86-21.33,3.84-32.18,4.39C214.7,458.29,225.13,454.69,235.58,451.12"/>
		<path class="st0" d="M21.75,208.96c1.82,0.25,3.26-0.72,4.58-1.69c6-4.37,12.88-6.8,19.9-8.76c8.5-2.38,16.51-6.21,25.09-8.32
			c0.87-0.21,1.68-0.74,2.86-0.3c1.1,3.45-1.39,6.27-2.4,9.16c-2.37,6.76-3.71,13.77-5.9,20.55c-0.4,1.24-0.8,2.24-2.16,2.65
			c-11.68,3.43-23.43,6.42-35.75,6.24c-4.56-0.07-8.12-2-11.63-5.49c7.66-4.94,14.93-10.14,23.29-13.25
			c8.34-3.1,16.61-6.44,25.18-8.98c-4.53-1.24-8.64,0.6-12.68,1.95c-10.99,3.67-21.2,8.98-30.71,15.62
			c-1.66,1.16-3.47,2.35-5.97,2.28c0.27-2.2,1.53-3.44,3.04-4.42c11.69-7.58,24.37-12.97,37.68-16.97c3.48-1.05,6.97-2.1,11.15-3.36
			c-3.57-0.94-6.44-0.43-9.24,0.38c-13.23,3.79-25.57,9.52-37,17.2c-1.25,0.84-2.55,1.63-4.53,1.86c-0.14-2.84,0.94-4.9,3.16-6.48
			c0.12,0.13,0.24,0.25,0.36,0.38c0.07,0.5,0.14,1,0.21,1.5c0.98-0.24,1.84-0.58,1.62-1.87L21.75,208.96z M22.73,222.45
			c12.67-7.29,26.89-10.81,40.08-16.78C47.86,207.38,35.37,215.15,22.73,222.45z M61.03,211.73c-6.55-1.43-24.28,5.87-30.55,12.36
			C39.88,218.81,50.09,215.56,61.03,211.73z M36.89,226c7.92-3.91,16.42-6.66,24.51-10.41C51.92,215.76,44.6,221.27,36.89,226z
			 M53,222.6c3.06-0.48,6.39-0.34,8.99-3.61C58,218.67,55.67,221.11,53,222.6z"/>
		<path class="st0" d="M159.66,161.06c6.79-2.53,9.39-8.19,10.85-14.65c0.49-2.19,0.76-4.43,1.48-6.57
			c2.58,22.37-5.76,42.2-14.52,62.66c-1.7-2.89-0.37-6.4-3.78-7.43l0.19,0.15c0.19-1.33-0.66-2.26-1.3-3.26
			c-6.53-10.24-5.2-20.3,3.81-28.68c0,0-0.1,0.09-0.1,0.09c0.29-0.39,0.57-0.78,0.86-1.17c0,0-0.1,0.13-0.1,0.13
			c0.94-0.41,2.12-0.38,2.72-1.44L159.66,161.06z"/>
		<path class="st0" d="M106.23,417.09c1.67-0.11,2.96,0.83,4.02,1.84c8.22,7.87,16.89,15.27,24.63,23.65
			c-0.15,0.17-0.28,0.35-0.39,0.55c-4.11-1.81-7.17-5.07-10.41-7.97c-6.31-5.66-12.6-11.39-17.74-18.21L106.23,417.09z"/>
		<path class="st0" d="M130.5,434.55c3.55-0.67,6.76-0.5,10.45-2.03c-1.2,3.09-3.18,4.84-3.66,7.51
			C134.09,439.31,132.58,436.95,130.5,434.55z"/>
		<path class="st0" d="M127.08,252.59c1.66,1.85,1.33,3.73,0.19,6.01c-3.04-2.61-3.74-5.97-4.91-9.47c2.79,0.03,2.57,3.52,4.88,3.57
			L127.08,252.59z"/>
		<path class="st0" d="M122.71,378.37c4.62,0.89,2.04,4.67,2.75,7.13c-1.23-2.25-3.1-4.24-2.77-7.11L122.71,378.37z"/>
		<path class="st0" d="M122.7,378.39c-1.43-0.02-0.94-0.93-0.79-1.72c0.71,0.38,0.74,1.05,0.81,1.7L122.7,378.39z"/>
		<path class="st0" d="M136.42,444.91c-0.81-0.41-1.62-0.82-1.93-1.77c0.11-0.2,0.24-0.38,0.39-0.55c1.17,0.43,2.01,1.05,1.45,2.48
			L136.42,444.91z"/>
		<path class="st0" d="M141.72,416.07c0.05,0.26,0.1,0.51,0.15,0.77c0.45-0.29,0.28-0.57-0.02-0.85L141.72,416.07z"/>
		<path class="st0" d="M138.98,444.7c-0.81,0.57-1.66,0.73-2.56,0.2l-0.09,0.16c0.78-0.89,1.73-0.22,2.6-0.29L138.98,444.7z"/>
		<path class="st0" d="M144.84,421.31c-0.14-0.21-0.29-0.42-0.43-0.63c0.57,0.08,0.13,0.55,0.3,0.78L144.84,421.31z"/>
		<path class="st0" d="M96.86,382.89c-0.4-0.31-1.28-0.46-0.73-1.17c0.39-0.5,1.06-0.3,1.53,0.16
			C97.4,382.21,97.13,382.55,96.86,382.89z"/>
		<polygon class="st0" points="170.63,130.75 170.92,130.7 170.7,130.62 		"/>
		<path class="st0" d="M141.85,416c-0.48-0.26-0.97-0.53-1.45-0.79l-0.06,0.11c0.46,0.25,0.93,0.51,1.39,0.76L141.85,416z"/>
		<path class="st0" d="M146.16,421.81c-0.6,0.25-0.97-0.12-1.32-0.51l-0.13,0.15c0.59-0.23,1.06-0.11,1.38,0.46L146.16,421.81z"/>
	</g>
	<g>
		<g>
			<path class="st2" d="M1006.15,35.75c1.64-2.99,3.33-5.96,4.92-8.98c3.01-5.7,4.19-1.81,5.22,1.65
				c4.08-4.93,5.25-10.91,10.17-15.28c1.05,8.53,4.86,5.39,8.98,1.64c0.77,4.29-1.23,7.15-2.69,9.87
				c-9.56,17.78-13.53,37.49-19.66,56.44c-3.02,9.31-1.84,10.28,7.35,8.87c7.87-1.21,15.74-2.47,23.64-3.51
				c5.67-0.75,9.04-3.34,10.69-9.2c4.41-15.65,9.35-31.14,14.2-46.66c1.08-3.46,1.51-7.27,4.17-10.1c3.6,0.99,0.97,4.81,3.43,6.75
				c1.21-2.3,2.3-4.51,3.52-6.65c0.72-1.27,1.8-2.41,3.4-2.07c1.59,0.34,1.95,1.83,2.26,3.26c1.93,8.95,7.54,17.74,0.35,27.17
				c5.91-8.51,7.67-18.56,13.76-27.66c3.57,6.03,5.04,11.23,3.3,17.45c-9.19,32.98-19.77,65.62-34.03,96.62
				c-15.65,34-42.14,56.12-80.9,60.67c-15.68,1.84-31.28,4.86-49.16,2.69c6.94-4.49,13.49-2.84,19.05-4.98
				c-2.18-2.56-5.58-0.5-8.59-2.58c6.24-4.92,14.28-2.87,20.99-6.26c-4.16-3.22-9.19,0.23-14.04-2.31
				c4.78-5.41,11.43-5.18,16.89-7.66c-0.08-2.7-3.7-2.27-4.64-5.66c14.27-4.35,30.26-5.09,41.96-15.82
				c11.23-10.29,23.76-19.66,29.73-36.32c-8.38,1.57-15.44,3.08-22.56,4.19c-12.67,1.97-25.42,3.28-38.27,2.75
				c-12.74-0.53-16.05-5.09-12.69-17.69c3.03-11.34,8.08-21.93,12.59-32.72c5.72-13.68,11.29-27.42,17.13-41.04
				c1.88-4.38,3.99-8.77,7.63-12.31c5.19,4.96,0.39,9.33,0.08,13.77c-1.18,1-3.28,2.13-1.44,3.7
				C1004.81,39.41,1005.48,37.17,1006.15,35.75z M978.66,183.2c-2.46-0.89-4.19-1.62-5.14,0.87
				C975.23,185.01,976.75,184.54,978.66,183.2z"/>
			<path class="st2" d="M1260.25,123.4c-11.25-10.07-13.59-20.25-7.05-30.05c6.69-10.04,20.99-13.74,32.78-7.61
				c5.27,2.74,10.45,2.09,15.77,2.41c2.14,0.13,4.99-0.71,5.35,2.66c0.36,3.28-2.17,3.69-4.54,3.59c-4.41-0.18-5.66,0.81-4.64,5.85
				c2.93,14.55-5.96,25.04-20.91,25.6c-3.41,0.13-6.85-0.29-10.26-0.2c-3.81,0.1-5.78,2.72-5.88,6.08c-0.1,3.19,2.88,4.08,5.47,4.22
				c5.7,0.31,11.42,0.1,17.11,0.45c4.25,0.26,8.61,0.56,12.66,1.73c9.36,2.69,13.02,11.56,8.84,20.39
				c-8.41,17.8-43.25,23.69-57.13,9.67c-4.8-4.84-2.61-9.23,0.79-13.64c3.45-4.48,10-8.22,2.66-15.05c-2.08-1.94-0.13-5.51,1.7-7.8
				C1255.25,128.82,1257.81,126.16,1260.25,123.4z M1268.12,146.73c-7.44-0.51-9.1,0.36-11.6,5.86c-1.51,3.31-2.03,6.44,0.91,9.41
				c7.26,7.33,32.85,6.81,40.09-0.87c2.28-2.42,3.82-5.2,2.84-8.49c-1.06-3.55-4.27-4.27-7.52-4.48
				C1284.6,147.65,1276.36,147.2,1268.12,146.73z M1262.15,103.25c0.15,6.62,1.06,13.91,8.72,18.06c3.66,1.98,7.34,1.41,10.37-1.17
				c6.62-5.64,5.84-13.23,4.41-20.55c-1.65-8.47-7.47-13.72-13.44-13C1266.08,87.32,1262.19,93.39,1262.15,103.25z"/>
			<path class="st2" d="M1172.64,90.47c5.63-2.37,11.07-5.58,16.94-6.89c7.84-1.75,2.33,6.46,5.91,8.94
				c2.95-2.17,5.92-4.74,9.25-6.71c11.46-6.8,22.77-1.71,25.06,11.37c1.97,11.31,0.64,22.77,0.9,34.17
				c0.14,6.13-0.15,12.35,9.55,13.01c-7.2,2.52-20.41,2.82-32.82,0.6c11.56-1.31,11.31-7.78,11.13-14.49
				c-0.24-9.12,0.09-18.26-0.19-27.38c-0.17-5.62-1.19-11.1-8.64-11.45c-6.89-0.33-15.35,5.75-15.54,11.85
				c-0.33,10.54,0.04,21.11-0.12,31.66c-0.1,6.29,4.1,8.12,9.62,9.23c-5.77,2.48-16.42,2.92-31.8,1.15
				c11.84-2.43,10.31-10.03,10.35-16.87c0.05-8.27,0.08-16.55-0.02-24.82C1182.13,97.58,1183.37,90.22,1172.64,90.47z"/>
			<path class="st2" d="M1171.64,134.82c-2.88,7.27-6.94,11-12.48,12.92c-3.02,1.05-7.12,1.09-8.38-2.19
				c-3.01-7.82-6.35-3.43-10.03-0.99c-8.48,5.62-17.81,4.77-23.02-1.95c-5.71-7.37-4-17.64,3.9-24.26
				c6.25-5.24,13.69-8.3,21.19-10.82c6.71-2.26,5.8-6.7,5-11.57c-1.02-6.24-5.16-8.54-11.02-8.21c-5.51,0.31-8.17,3.35-8.04,8.92
				c0.08,3.49-0.01,7.09-4.2,8.37c-2.3,0.7-4.6,0.32-6.15-1.79c-2.55-3.47-1.74-7.01,0.1-10.44c4.35-8.1,17.16-12.15,29.02-9.24
				c9.25,2.27,12.64,6.91,12.89,18.31c0.2,9.4-0.08,18.81,0.15,28.21C1160.8,139.64,1161.57,140,1171.64,134.82z M1148.88,121.77
				c0-2.57,0.04-5.13-0.01-7.7c-0.05-2.38-0.83-4.02-3.63-2.85c-6.05,2.52-12.48,4.64-16.36,10.37c-3.35,4.94-3.39,10.38,0.46,15.08
				c4.15,5.05,9.01,3.06,13.9,0.7C1150.34,133.93,1148.87,127.63,1148.88,121.77z"/>
		</g>
		<g>
			<path class="st2" d="M965.53,481.53c-2.56-2.3-0.1-6.01-2.32-8.83c-5.08,5.6-4.05,14-9.55,20.58c-1.97-6.55,1.81-12.4-0.68-17.93
				c-2.51,0.39-1.97,3.27-4.03,4.44c-2.63-4.82,1.8-9.97-0.71-14.82c-3.66,1.41-2.3,6.98-6.77,8.02
				c-2.81-5.13-1.59-10.47-1.11-15.79c1.72-19.05,5.48-37.75,9.28-56.45c0.87-4.3,2.23-8.94-4.96-8.04
				c-0.35-3.67,3.92-2.53,4.1-5.33c-3.4-2.55-7.49-0.43-11.78-1.29c2.2-5.67,8.17-5.6,11.95-8.64c-1.44-2.81-4.53-0.41-6.38-2.08
				c-0.42-2.86,1.92-4.24,3.85-4.67c9.79-2.18,10.07-9.43,10.77-17.45c1.25-14.19,6.64-27.7,7.75-41.99c0.14-1.83,1.73-4.73-1-4.97
				c-11.29-0.97,2.27-4.64-1.32-6.36c-2.77-2.23-5.84,0.74-9.21,0.45c0.13-3.75,5.9-3.05,5.47-7.18c-2.2-2.3-5.42,0.41-9.46-2.65
				c18.03-5.33,22.1-19.55,23.16-36.91c5.2,4.48,9.08,7.28,10.71,12.28c3.42-2.65,2.45-6.65,4.86-10.63
				c1.35,3.92,2.45,7.1,3.86,11.16c1.27-3.49,2.27-6.25,3.27-9c0.8,0.17,1.71,0.22,1.73,0.38c1.07,9.25,5.44,9.41,13.23,6.26
				c17.69-7.15,35.99-12.24,55.02-15.08c12.22-1.83,21.11,2.77,27.22,11.67c5.61,8.18,3.3,17.99-2.43,25.58
				c-11.9,15.75-25.57,29.92-42.21,40.86c-13.97,9.19-27.19,19.51-41.94,28.01c11.88-1.06,23.82-1.74,35.62-3.36
				c5.98-0.82,11.9-1.21,17.86-1.12c15.74,0.25,22.75,9.63,18.23,24.68c-5.02,16.7-11.88,32.68-19.73,48.26
				c-3.45,6.85-6.7,13.73-10.87,20.26c-7.56,11.85-19.21,17.11-31.89,19.29c-8.72,1.5-17.24,3.47-25.79,5.54
				c-2.88,0.69-5.62,3.03-8.86,1.21c2.76-3-1.67-7.78,2.92-9.99c-2-3.26-6.38,0.93-7.24-2.8c-0.62-2.7,2.35-3.61,4.29-4.63
				c3.5-1.84,0.21-1.66-0.37-2.88c-2.34-4.93,2.18-6.38,5.33-7.64c9.51-3.81,19.15-7.33,28.83-10.69
				c6.68-2.31,11.45-6.95,13.92-13.05c3.84-9.49,6.43-19.48,9.74-29.2c1.27-3.74,0.32-5.46-3.64-5.3
				c-14.76,0.6-29.54,0.82-44.08,3.95c-3.77,0.81-3.78,3.31-4.17,6.31c-3.75,28.88-11.29,56.97-18.35,85.15
				C967.41,480.14,967.27,481.41,965.53,481.53z M1038.62,293.87c-0.38-0.6-0.76-1.21-1.14-1.81c-9.2,2.77-18.28,6.09-27.64,8.13
				c-7.68,1.67-11.3,4.44-11.61,13.24c-0.44,12.46-3.32,24.82-4.93,37.26c-0.28,2.2-1.92,5.42,1.77,6.49
				c3.04,0.88,3.61-1.91,5.36-3.61c5.31-5.17-0.6-9.91,0.34-15.05c1.35-7.36,0.49-13.94,8.32-19.28
				C1019.74,311.97,1028.85,302.43,1038.62,293.87z M961.43,292.76c0.5-0.24,0.97-0.47,1.44-0.7c-0.24-0.35-0.48-0.98-0.72-0.98
				c-0.46,0-0.92,0.36-1.38,0.57C960.98,292.01,961.2,292.37,961.43,292.76z M1005.68,328.89l-0.28,0.39l0.49,0.04L1005.68,328.89z"
				/>
			<path class="st2" d="M1238.1,343.86c2.39-2.8,2.67-3.37,3.13-3.63c18.49-10.45,19.14-10.04,19.23,10.67
				c0.09,20.5,0.27,40.99,0.56,61.48c0.08,5.56-0.09,11.81,10.14,8.98c-6,5.87-12.45,7.02-18.2,9.53c-0.68,0.3-2.3,0.11-2.4-0.2
				c-3.16-9.76-7.89-1.91-11.39-0.7c-11.63,4.02-24.57-1.75-30.3-14.11c-6.63-14.29-1.88-34.5,10.46-44.31
				c6.95-5.52,15.04-7.6,23.23-4.5c6.34,2.4,6.65-0.11,6.36-4.95c-0.2-3.41-0.24-6.83-0.26-10.24
				C1248.61,346.31,1248.4,340.93,1238.1,343.86z M1249.37,400.44c-0.18-4.99,0.55-11.29-0.96-17.45
				c-1.52-6.19-4.5-11.12-11.49-12.1c-7.37-1.04-12.16,2.9-14.81,9.05c-4.85,11.25-4.65,22.72,0.71,33.82
				c2.02,4.19,5.52,7.17,9.95,8.91c8.47,3.33,16.3-1.71,16.58-10.74C1249.45,408.52,1249.37,405.1,1249.37,400.44z"/>
			<path class="st2" d="M1201.47,417.61c-2.06,6.98-5.85,10.28-10.54,12.49c-5.78,2.72-9-0.13-12.62-4.93
				c-2.75-3.64-5.75,1.53-8.32,3.04c-12.08,7.11-25.04,0.94-25.5-12.47c-0.21-6.16,2.64-10.92,7.46-14.65
				c6.41-4.97,13.75-8.25,21.3-10.76c6.85-2.28,5.53-7.09,4.67-11.75c-1.03-5.63-4.97-8.08-10.55-7.88
				c-5.44,0.2-8.45,2.88-8.38,8.58c0.04,3.78,0.05,7.71-4.75,8.84c-2.38,0.56-4.65-0.05-5.96-2.31c-2.3-3.96-1.18-7.76,1.09-11.27
				c4.8-7.43,17.83-10.91,28.87-7.83c9.11,2.54,11.84,6.88,11.93,18.88c0.07,9.42-0.16,18.85,0.36,28.24
				C1191.08,423.47,1191.83,423.66,1201.47,417.61z M1179.05,406.08c0-3.57,0.05-6.4-0.02-9.23c-0.05-1.85-0.74-3.79-2.95-2.86
				c-7.24,3.06-15.27,5.27-18.69,13.52c-2.05,4.94-1.08,9.59,2.95,13.16c3.73,3.3,7.73,2.05,11.89,0.3
				C1179.65,417.86,1179.64,411.79,1179.05,406.08z"/>
			<path class="st2" d="M1326.36,405.9c1.33,10.48-6.77,21.65-16.73,24.58c-11.34,3.33-24.83-2.52-30.07-13.99
				c-5.92-12.96-5.65-26.24,1.96-38.49c6.2-9.98,16.11-13.38,27.42-11.79c9.21,1.29,15.45,6.75,18.44,15.75
				c1.81,5.45,1.34,8.66-5.75,8.36c-9.97-0.41-19.96,0.04-29.94-0.15c-4.62-0.09-6.27,1.78-5.32,6.18c0.12,0.56,0.24,1.11,0.34,1.68
				c2.01,11.27,8.77,19.51,17.27,21.2C1315.27,421.47,1321.8,415.65,1326.36,405.9z M1299.37,386.53c1.42,0,2.92,0.28,4.26-0.05
				c3.24-0.8,8.38,2.6,9.48-2.45c1.11-5.11-2.16-9.24-6.95-11.58c-5.55-2.72-10.51-1.3-14.91,2.64c-2.88,2.58-5.37,6.18-4.4,9.65
				c1.04,3.68,5.42,1.17,8.26,1.75C1296.47,386.77,1297.95,386.53,1299.37,386.53z"/>
			<path class="st2" d="M1376.2,386.55c-3.81-2.11-3.71-5.67-5.21-8.26c-2.81-4.86-6.72-7.64-12.42-7.63
				c-4.52,0.01-8.86,0.86-10.32,5.81c-1.39,4.73,1.01,8.43,5,10.76c4.66,2.73,9.57,5.02,14.38,7.49
				c11.72,6.01,16.41,14.46,13.15,23.66c-3.36,9.46-14.61,14.71-26.29,12.32c-4.07-0.83-7.77-3.52-12.37-1.92
				c-2.18,0.76-2.77-1.39-2.79-3.19c-0.05-5.3-0.02-10.6-0.02-16.7c4.46,1.42,4.2,4.75,5.39,6.98c3.3,6.24,8.04,10.26,15.39,10.53
				c4.28,0.16,8.12-0.82,9.86-5.16c1.77-4.4,0.96-8.77-2.92-11.54c-4.84-3.46-10.12-6.33-15.33-9.24
				c-11.36-6.37-15.08-13.91-11.32-23.42c3.56-9.02,12.68-12.9,24.35-10.35c0.28,0.06,0.53,0.24,0.8,0.3
				C1378.65,369.86,1379.01,370.51,1376.2,386.55z"/>
			<path class="st2" d="M1105.01,341.73c5.4-4.08,11.36-5.99,17.1-7.74c5.96-1.82,4.41,3.56,4.43,6.46
				c0.12,24.47,0.15,48.95,0.02,73.42c-0.04,6.81,0.38,12.9,9.13,14.66c-9.5,0-19.01,0-31.56,0c12.14-2.63,10.65-10.18,10.66-17.02
				c0.02-19.07,0.06-38.14-0.02-57.2C1114.74,343.98,1114.64,343.99,1105.01,341.73z"/>
		</g>
		<g>
			<path class="st2" d="M640.54,194.89c-2.13-2.61-5.62-0.17-7.24-3.59c8.82-4.26,18.97-2.77,29.03-6.93
				c-8.11-2.24-15.02,2.28-22.55-0.72c4.79-5.61,11.45-5.25,17.12-7.65c-0.08-2.78-4.33-1.97-4.62-5.24
				c4.07-2.91,9.27-3.25,14.05-4.09c24.58-4.33,39.27-21.73,53.39-39.87c1.55-1.99,3.82-5.23,1.66-7.68
				c-1.91-2.17-4.77,0.31-7.18,0.84c-17.59,3.86-35.37,5.88-53.37,5.03c-10.32-0.48-14.53-5.08-11.65-14.17
				c9.49-29.91,21.67-58.78,35.72-86.85c0.51-1.02,1.08-2.01,1.62-3.03c6.31,5.26-0.24,10.35,1.73,15.14
				c5.02-2.28,4.22-8.78,8.57-11.26c2.41,1.47-0.01,4.07,1.44,6.68c4.57-5.65,6-12.42,11.23-17.57c1.87,4.26,4.22,7.43,8.48,2.14
				c1.32,5.01-1.48,8.29-3.18,11.65c-9.09,17.96-13.3,37.53-19.09,56.58c-1.71,5.62-2.07,9.46,6.22,7.06
				c6.78-1.96,13.98-3.26,21.01-3.36c9.88-0.14,13.77-5.11,16.12-13.99c4-15.15,9.04-30.02,13.75-44.98
				c0.81-2.58,0.91-5.64,3.65-7.41c3.03,1.45,0.31,4.92,2.53,6.55c1.77-0.72,2.01-2.57,2.8-4.03c1.06-1.95,1.71-4.86,4.42-4.55
				c2.9,0.33,3.13,3.51,2.73,5.47c-0.93,4.53,4.22,4.59,5.15,7.96c0.71,2.58,2.53,0.57,3.49-0.83c1.9-2.78,2.14-6.52,5.48-9.15
				c3.73,5.54,4.75,11.06,2.97,17.5c-6.15,22.26-14.09,43.9-22.04,65.56c-5.69,15.51-10.68,31.13-20.11,45.06
				c-15.87,23.46-36.45,39.71-64.84,44.57c-16.83,2.88-33.73,5.61-50.93,4.74c-1.51-0.08-3.43,0.8-4.8-1.82
				C628.55,195.3,634.85,196.97,640.54,194.89z M771.59,42.22c-1.52,2.9-4.12,5.51-2.29,10.03C772.4,47.19,772.4,47.19,771.59,42.22
				z M686.47,41.35c0.55-1.06,1.12-1.69,1.15-2.34c0.03-0.69-0.29-1.78-1.41-1.16c-0.59,0.33-1.23,1.07-1.28,1.67
				C684.9,39.98,685.74,40.52,686.47,41.35z M767.82,56.95c-0.06-0.19-0.07-0.43-0.19-0.55c-0.06-0.06-0.33,0.07-0.5,0.11
				c0.06,0.19,0.07,0.43,0.19,0.55C767.38,57.13,767.64,56.99,767.82,56.95z M769.23,31.31c-0.16,0.15-0.44,0.29-0.46,0.46
				c-0.02,0.17,0.22,0.37,0.35,0.55c0.16-0.15,0.44-0.29,0.46-0.46C769.6,31.69,769.36,31.49,769.23,31.31z"/>
			<path class="st2" d="M863.09,146.96c-9.48,0-18.96,0-28.44,0c9.65-3.29,7.65-11.47,7.7-18.77c0.06-7.99,0.09-15.98-0.02-23.96
				c-0.13-9.56-0.21-9.57-9.85-11.75c5.65-4.27,11.8-6.83,17.88-7.89c6.94-1.21,1.8,6.3,5.16,9.05c2.68-1.98,5.44-4.29,8.46-6.21
				c12.06-7.66,23.79-2.54,26.04,11.5c1.81,11.33,0.5,22.78,0.82,34.18c0.25,9.09,0.28,9.22,10.18,13.54c-11.48,0-20.96,0-30.43,0
				c8.64-2.16,8.32-8.84,8.1-15.78c-0.28-8.83,0.1-17.69-0.18-26.52c-0.18-5.58-1.04-11.14-8.49-11.62
				c-6.81-0.44-15.5,5.62-15.7,11.68c-0.35,10.83-0.05,21.68-0.08,32.51C854.22,142.87,858.63,144.62,863.09,146.96z"/>
			<path class="st2" d="M829.06,147.26c-11.56,0-20.91,0-30.26,0c9.85-3.37,7.82-11.57,7.87-18.83c0.07-8.25,0.07-16.5-0.02-24.75
				c-0.07-5.8,0.44-12.21-11.47-9.42c7.55-6.22,13.76-8.07,19.78-9.8c4.55-1.31,3.81,2.98,3.83,5.59
				c0.09,13.94,0.01,27.88,0.06,41.81C818.88,142.04,818.93,142.04,829.06,147.26z"/>
			<path class="st2" d="M819.71,58.66c-0.73,4.24-3.02,6.81-7.46,6.54c-4.52-0.27-6.56-3.16-6.25-7.47c0.29-3.98,2.72-6.2,6.76-6.1
				C817.23,51.74,819.3,54.42,819.71,58.66z"/>
		</g>
		<g>
			<path class="st2" d="M692.16,334.29c7.26-2.46,14.28-5.71,22.26-5.4c9.78,0.38,12.87,4.37,9.78,13.82
				c-4.7,14.4-11.08,28.12-18.65,41.2c-6.45,11.15-11.23,23.06-16.93,34.55c-1.71,3.44-1.61,6.62,0.9,9.53
				c2.25,2.61,4.83,3.4,8.38,2.07c2.49-0.93,7.69-1.39,7.68,0.32c-0.04,4.2,4.15,8.61-0.47,12.91c-2.99,2.78-7.67,4.32-6.9,10.67
				c0.28,2.29-6.46,4.27-10.36,4.25c-7.1-0.05-14.32-0.85-20.96-3.49c-11.26-4.47-16.15-16.54-12.83-31.03
				c3.07-13.41,7.77-26.23,14.63-38.21c0.53-0.92,0.65-2.07,0.99-3.23c-16.09,1.62-27.22,11.57-30.03,26.5
				c-2.64,14.01-5.59,27.96-7.92,42.01c-0.9,5.45-3.65,9.81-5.8,15.56c-3.2-7.09-2.43-13.64-2.71-21.58
				c-5.15,6.69-4.21,14.04-8.42,21.12c-3.08-7.22-1.09-13.69-2.11-20.97c-3.82,5.17-7.06,9.55-10.48,14.19
				c-1.75-9.22,22.44-179.8,26.99-189.97c4.36,6.87,4.11,14.16,4.04,22.63c4.51-3.83,3.56-8.72,5.23-12.44
				c1.8-4.01,0.68-9.06,5.07-13.58c3.71,9.35-0.27,18.34,2.18,27.41c6.04-11.45,3.5-25.21,12.95-37.55
				c2.23,26.47-5.8,49.85-5.97,74.05c21.35-23.61,34.92-52,50.84-80.26c2.4,5.4,1.26,9.51,0.6,14.09c5.59-1.35,5.6-6.1,7.66-9.17
				c0.79-1.18,1.44-2.96,2.95-2.67c1.96,0.37,2.23,2.29,2.1,4.1c-0.26,3.62-2.58,6.99-1.53,10.71c2.47,0.86,3.1-1,4.18-2.24
				c1.56-1.79,2.32-5.54,5.43-4.31c3.05,1.21,4.17,4.63,4.15,7.9c-0.02,6.02-3.73,10.59-6.46,15.57
				c-9.48,17.25-20.66,33.41-31.68,49.67c-0.23,0.55-0.47,1.1-0.71,1.64C690.87,334.53,691.51,334.41,692.16,334.29z M714.71,270.92
				c0.23-0.54,0.59-1.04,0.58-1.53c0-0.27-0.64-0.52-0.99-0.78c-0.22,0.49-0.59,0.98-0.59,1.46
				C713.72,270.34,714.33,270.61,714.71,270.92z M671.49,380.1l-0.3,0.51l0.57,0.02L671.49,380.1z"/>
			<path class="st2" d="M799.52,397.74c-0.05,19.81-12.77,33.57-30.89,33.4c-15.94-0.14-28.84-14.37-28.87-31.83
				c-0.03-18.81,13.22-33.31,30.44-33.32C787.49,365.97,799.56,379.05,799.52,397.74z M787.03,403.33
				c-0.86-10.1-1.75-18.95-7.36-26.36c-6.87-9.09-18.76-8.1-23.78,1.89c-5.58,11.11-2.64,33.11,5.64,42.25
				c7.54,8.32,19.59,6.03,23.12-4.7C786.15,411.86,786.41,406.91,787.03,403.33z"/>
			<path class="st2" d="M839.03,429.15c-9.34,0-18.68,0-28.03,0c10.09-3.67,7.76-12.17,7.84-19.64c0.08-7.96,0.12-15.93-0.03-23.89
				c-0.11-5.7,0.7-12.38-11.31-9.4c7.08-6.25,13.18-7.65,18.77-9.75c4.87-1.83,4.71,2.28,4.72,5.46
				c0.02,13.94,0.06,27.87-0.01,41.81C830.95,420.12,830.65,426.52,839.03,429.15z"/>
			<path class="st2" d="M825.59,347.26c-5.16-0.4-7.53-2.76-7.43-7.19c0.09-4,2.29-6.41,6.34-6.53c4.4-0.14,7.07,2.25,7.24,6.6
				C831.92,344.61,828.98,346.6,825.59,347.26z"/>
		</g>
	</g>
</g>
</svg>
